<svg width="256" height="256" viewBox="0 0 256 256" fill="none" xmlns="http://www.w3.org/2000/svg">
  <rect width="256" height="256" fill="white"/>
  <rect x="20" y="20" width="60" height="60" fill="black"/>
  <rect x="25" y="25" width="50" height="50" fill="white"/>
  <rect x="35" y="35" width="30" height="30" fill="black"/>
  
  <rect x="176" y="20" width="60" height="60" fill="black"/>
  <rect x="181" y="25" width="50" height="50" fill="white"/>
  <rect x="191" y="35" width="30" height="30" fill="black"/>
  
  <rect x="20" y="176" width="60" height="60" fill="black"/>
  <rect x="25" y="181" width="50" height="50" fill="white"/>
  <rect x="35" y="191" width="30" height="30" fill="black"/>
  
  <rect x="90" y="90" width="10" height="10" fill="black"/>
  <rect x="105" y="90" width="10" height="10" fill="black"/>
  <rect x="120" y="90" width="10" height="10" fill="black"/>
  <rect x="135" y="90" width="10" height="10" fill="black"/>
  <rect x="150" y="90" width="10" height="10" fill="black"/>
  <rect x="165" y="90" width="10" height="10" fill="black"/>
  
  <rect x="90" y="105" width="10" height="10" fill="black"/>
  <rect x="120" y="105" width="10" height="10" fill="black"/>
  <rect x="165" y="105" width="10" height="10" fill="black"/>
  
  <rect x="90" y="120" width="10" height="10" fill="black"/>
  <rect x="105" y="120" width="10" height="10" fill="black"/>
  <rect x="135" y="120" width="10" height="10" fill="black"/>
  <rect x="150" y="120" width="10" height="10" fill="black"/>
  
  <rect x="90" y="135" width="10" height="10" fill="black"/>
  <rect x="120" y="135" width="10" height="10" fill="black"/>
  <rect x="135" y="135" width="10" height="10" fill="black"/>
  <rect x="165" y="135" width="10" height="10" fill="black"/>
  
  <rect x="90" y="150" width="10" height="10" fill="black"/>
  <rect x="105" y="150" width="10" height="10" fill="black"/>
  <rect x="135" y="150" width="10" height="10" fill="black"/>
  <rect x="150" y="150" width="10" height="10" fill="black"/>
  <rect x="165" y="150" width="10" height="10" fill="black"/>
  
  <text x="128" y="230" font-family="Arial" font-size="14" fill="black" text-anchor="middle">DuitNow QR</text>
</svg>

